<svg width="24" height="24" viewBox="0 0 24 24" fill="none" xmlns="http://www.w3.org/2000/svg">
<g clip-path="url(#clip0_74_582)">
<path d="M20.7601 21.5926H18.2626L18.2551 20.965C18.2576 20.9475 18.2526 19.365 18.0801 16.945C17.8701 14 17.5701 11.24 14.1526 9.09755L14.7276 8.48755C16.5726 9.58755 18.1551 11.1125 18.9201 12.41C19.9126 14.0975 20.2526 14.995 20.5501 16.555C21.0576 19.195 20.7726 21.5076 20.7601 21.5926Z" fill="#755E49"/>
<path d="M13.2576 20.9392C13.2576 21.2892 13.2251 21.6292 13.1626 21.9592H3.03006C2.96756 21.6292 2.93506 21.2867 2.93506 20.9392C2.93506 20.3342 3.03506 19.7517 3.21506 19.2092C3.91256 17.1317 5.83506 15.6392 8.09506 15.6392C10.3551 15.6392 12.2776 17.1317 12.9751 19.2092C13.1601 19.7517 13.2576 20.3342 13.2576 20.9392Z" fill="#FF9D00"/>
<path d="M23.1825 21.7175C23.1825 22.0975 23.0275 22.44 22.78 22.69C22.5325 22.94 22.1875 23.0925 21.8075 23.0925H2.15747C1.39747 23.0925 0.782471 22.4775 0.782471 21.7175C0.782471 21.3375 0.937471 20.995 1.18497 20.745C1.43497 20.4975 1.77747 20.3425 2.15747 20.3425H21.8075C22.5675 20.3425 23.1825 20.9575 23.1825 21.7175Z" fill="#00B7FF"/>
<path d="M23.0126 9.36496C23.2576 9.36496 23.3526 8.96246 23.1501 8.79246C22.4201 8.17746 21.0001 7.28746 18.9076 7.27496C16.8001 7.25996 15.3851 8.17746 14.6676 8.80496C14.4676 8.97996 14.5651 9.37496 14.8076 9.37496L23.0126 9.36496Z" fill="#02C652"/>
<path d="M20.69 3.71752C20.8625 3.54502 20.6475 3.19252 20.3825 3.21502C19.43 3.29752 17.7975 3.67252 16.31 5.14252C14.81 6.62252 14.4575 8.27002 14.3925 9.22252C14.375 9.48752 14.7225 9.70002 14.895 9.52752L20.69 3.71752Z" fill="#02C652"/>
<path d="M15.1875 9.18505C15.36 9.01255 15.145 8.66005 14.88 8.68255C13.9275 8.76505 12.295 9.14005 10.8075 10.61C9.30754 12.09 8.95504 13.7375 8.89004 14.69C8.87254 14.955 9.22004 15.1675 9.39254 14.995L15.1875 9.18505Z" fill="#02C652"/>
<path d="M15.42 1.04751C15.42 0.80251 15.0175 0.70751 14.8475 0.91001C14.2325 1.64001 13.3425 3.06001 13.33 5.15251C13.315 7.26001 14.2325 8.67501 14.86 9.39251C15.035 9.59251 15.43 9.49501 15.43 9.25251L15.42 1.04751Z" fill="#02C652"/>
<path d="M15.42 8.73245C15.42 8.48745 15.0175 8.39245 14.8475 8.59495C14.2325 9.32495 13.3425 10.7449 13.33 12.8374C13.315 14.9449 14.2325 16.3599 14.86 17.0774C15.035 17.2774 15.43 17.1799 15.43 16.9374L15.42 8.73245Z" fill="#02C652"/>
<path d="M15.0624 9.42746C15.3074 9.42746 15.4024 9.02496 15.1999 8.85496C14.4699 8.23996 13.0499 7.34996 10.9574 7.33746C8.84991 7.32246 7.43491 8.23996 6.71741 8.86746C6.51741 9.04246 6.61491 9.43746 6.85741 9.43746L15.0624 9.42746Z" fill="#02C652"/>
</g>
<defs>
<clipPath id="clip0_74_582">
<rect width="24" height="24" fill="white"/>
</clipPath>
</defs>
</svg>
